<svg width="23" height="25" viewBox="0 0 23 25" fill="none" xmlns="http://www.w3.org/2000/svg">
<g clip-path="url(#clip0_1_156)">
<path d="M22.3742 20.8938L18.6542 17.2238C19.3742 16.3238 19.9008 15.3238 20.2342 14.2238C20.5742 13.1172 20.6942 11.9938 20.5942 10.8538C20.5008 9.70715 20.1975 8.61715 19.6842 7.58382C19.1708 6.55049 18.4875 5.65049 17.6342 4.88382C16.7808 4.11715 15.8142 3.53716 14.7342 3.14382C13.6542 2.75049 12.5375 2.57049 11.3842 2.60382C10.2308 2.63715 9.1275 2.87715 8.07417 3.32382C7.01417 3.77049 6.0775 4.40382 5.26417 5.22382C4.44417 6.03715 3.81083 6.97382 3.36417 8.03382C2.9175 9.08715 2.6775 10.1905 2.64417 11.3438C2.61083 12.4972 2.79083 13.6138 3.18417 14.6938C3.5775 15.7738 4.1575 16.7405 4.92417 17.5938C5.69083 18.4472 6.59083 19.1305 7.62417 19.6438C8.6575 20.1572 9.7475 20.4605 10.8942 20.5538C12.0342 20.6538 13.1575 20.5338 14.2642 20.1938C15.3642 19.8605 16.3642 19.3338 17.2642 18.6138L20.9342 22.2838C21.0275 22.3838 21.1408 22.4605 21.2742 22.5138C21.4008 22.5672 21.5275 22.5938 21.6542 22.5938C21.7808 22.5938 21.9075 22.5672 22.0342 22.5138C22.1675 22.4605 22.2808 22.3838 22.3742 22.2838C22.5475 22.0905 22.6342 21.8638 22.6342 21.6038C22.6342 21.3372 22.5475 21.1005 22.3742 20.8938ZM11.6442 18.6138C10.2375 18.6138 8.9475 18.2205 7.77417 17.4338C6.59417 16.6538 5.73416 15.6072 5.19416 14.2938C4.6475 12.9805 4.51416 11.6338 4.79416 10.2538C5.07416 8.86715 5.71417 7.67382 6.71417 6.67382C7.71417 5.67382 8.9075 5.03382 10.2942 4.75382C11.6742 4.47382 13.0208 4.60716 14.3342 5.15382C15.6475 5.69382 16.6942 6.55382 17.4742 7.73382C18.2608 8.90716 18.6542 10.1972 18.6542 11.6038C18.6542 12.5305 18.4775 13.4272 18.1242 14.2938C17.7708 15.1605 17.2675 15.9205 16.6142 16.5738C15.9608 17.2272 15.2008 17.7305 14.3342 18.0838C13.4675 18.4372 12.5708 18.6138 11.6442 18.6138Z" fill="#747474"/>
</g>
<defs>
<clipPath id="clip0_1_156">
<rect width="19.9956" height="19.9956" fill="white" transform="translate(2.64252 2.60217)"/>
</clipPath>
</defs>
</svg>
