<svg width="1566" height="153" viewBox="0 0 1566 153" fill="none" xmlns="http://www.w3.org/2000/svg">
<path d="M0.5 61.5H1565.5V62.5H0.5V61.5Z" stroke="white"/>
<g filter="url(#filter0_d_27_7)">
<path d="M312.328 52.1875C312.328 24.5733 334.714 2.1875 362.328 2.1875H390.328C417.942 2.1875 440.328 24.5733 440.328 52.1875V80.1875C440.328 107.802 417.942 130.188 390.328 130.188H362.328C334.714 130.188 312.328 107.802 312.328 80.1875V52.1875Z" fill="white"/>
<path d="M313.328 52.1875C313.328 25.1255 335.266 3.1875 362.328 3.1875H390.328C417.39 3.1875 439.328 25.1255 439.328 52.1875V80.1875C439.328 107.249 417.39 129.188 390.328 129.188H362.328C335.266 129.188 313.328 107.249 313.328 80.1875V52.1875Z" stroke="white" stroke-width="2"/>
<path d="M338.4 68.541V70.125H330.608V58.765H338.256V60.349H332.4V63.581H337.472V65.069H332.4V68.541H338.4ZM339.325 65.949C339.325 65.149 339.485 64.4237 339.805 63.773C340.136 63.1117 340.584 62.589 341.149 62.205C341.714 61.8103 342.365 61.613 343.101 61.613C343.741 61.613 344.317 61.7783 344.829 62.109C345.352 62.4397 345.757 62.8503 346.045 63.341V58.445H347.805V68.141C347.805 68.3437 347.842 68.4877 347.917 68.573C347.992 68.6583 348.114 68.7063 348.285 68.717V70.125C347.954 70.1783 347.698 70.205 347.517 70.205C347.186 70.205 346.904 70.109 346.669 69.917C346.445 69.725 346.328 69.4957 346.317 69.229L346.301 68.605C345.981 69.1383 345.549 69.5543 345.005 69.853C344.461 70.141 343.896 70.285 343.309 70.285C342.733 70.285 342.2 70.173 341.709 69.949C341.229 69.725 340.808 69.4103 340.445 69.005C340.093 68.5997 339.816 68.1357 339.613 67.613C339.421 67.0903 339.325 66.5357 339.325 65.949ZM346.045 67.117V64.925C345.928 64.5837 345.736 64.2797 345.469 64.013C345.213 63.7357 344.92 63.517 344.589 63.357C344.269 63.197 343.949 63.117 343.629 63.117C343.256 63.117 342.914 63.197 342.605 63.357C342.306 63.517 342.045 63.7303 341.821 63.997C341.608 64.2637 341.442 64.5677 341.325 64.909C341.208 65.2503 341.149 65.6077 341.149 65.981C341.149 66.365 341.213 66.7277 341.341 67.069C341.469 67.3997 341.65 67.6983 341.885 67.965C342.13 68.221 342.408 68.4237 342.717 68.573C343.037 68.7117 343.384 68.781 343.757 68.781C343.992 68.781 344.226 68.7383 344.461 68.653C344.706 68.5677 344.936 68.4503 345.149 68.301C345.373 68.1517 345.56 67.9757 345.709 67.773C345.869 67.5703 345.981 67.3517 346.045 67.117ZM349.96 66.877V61.757H351.72V66.525C351.72 67.2717 351.854 67.837 352.12 68.221C352.398 68.5943 352.798 68.781 353.32 68.781C353.651 68.781 353.971 68.7117 354.28 68.573C354.6 68.4343 354.888 68.2317 355.144 67.965C355.411 67.6877 355.624 67.357 355.784 66.973V61.757H357.544V68.141C357.544 68.3437 357.582 68.4877 357.656 68.573C357.731 68.6583 357.854 68.7063 358.024 68.717V70.125C357.843 70.157 357.694 70.1783 357.576 70.189C357.459 70.1997 357.347 70.205 357.24 70.205C356.92 70.205 356.654 70.1197 356.44 69.949C356.227 69.7677 356.104 69.5383 356.072 69.261L356.04 68.429C355.667 69.037 355.182 69.501 354.584 69.821C353.987 70.1303 353.331 70.285 352.616 70.285C351.742 70.285 351.08 69.997 350.632 69.421C350.184 68.845 349.96 67.997 349.96 66.877ZM363.582 70.285C362.932 70.285 362.34 70.173 361.806 69.949C361.284 69.7143 360.83 69.3943 360.446 68.989C360.062 68.5837 359.764 68.1197 359.55 67.597C359.348 67.0743 359.246 66.5197 359.246 65.933C359.246 65.1437 359.422 64.4237 359.774 63.773C360.137 63.1223 360.638 62.5997 361.278 62.205C361.929 61.8103 362.697 61.613 363.582 61.613C364.436 61.613 365.177 61.805 365.806 62.189C366.446 62.5623 366.916 63.0637 367.214 63.693L365.502 64.237C365.31 63.885 365.038 63.613 364.686 63.421C364.345 63.2183 363.966 63.117 363.55 63.117C363.081 63.117 362.654 63.2397 362.27 63.485C361.897 63.7197 361.598 64.0503 361.374 64.477C361.161 64.893 361.054 65.3783 361.054 65.933C361.054 66.4663 361.166 66.9517 361.39 67.389C361.614 67.8157 361.913 68.157 362.286 68.413C362.67 68.6583 363.097 68.781 363.566 68.781C363.854 68.781 364.132 68.733 364.398 68.637C364.676 68.5303 364.916 68.3917 365.118 68.221C365.321 68.0397 365.465 67.8423 365.55 67.629L367.278 68.141C367.097 68.557 366.825 68.925 366.462 69.245C366.11 69.565 365.689 69.821 365.198 70.013C364.718 70.1943 364.18 70.285 363.582 70.285ZM368.12 67.677C368.12 67.1437 368.269 66.6797 368.568 66.285C368.877 65.8797 369.299 65.5703 369.832 65.357C370.365 65.133 370.984 65.021 371.688 65.021C372.061 65.021 372.44 65.0477 372.824 65.101C373.219 65.1543 373.565 65.2397 373.864 65.357V64.829C373.864 64.2423 373.688 63.7837 373.336 63.453C372.984 63.1223 372.477 62.957 371.816 62.957C371.347 62.957 370.904 63.0423 370.488 63.213C370.072 63.373 369.629 63.6023 369.16 63.901L368.568 62.717C369.123 62.3437 369.677 62.0663 370.232 61.885C370.797 61.7037 371.389 61.613 372.008 61.613C373.128 61.613 374.008 61.9117 374.648 62.509C375.299 63.0957 375.624 63.933 375.624 65.021V68.141C375.624 68.3437 375.656 68.4877 375.72 68.573C375.795 68.6583 375.917 68.7063 376.088 68.717V70.125C375.928 70.157 375.784 70.1783 375.656 70.189C375.528 70.1997 375.421 70.205 375.336 70.205C374.963 70.205 374.68 70.1143 374.488 69.933C374.296 69.7517 374.184 69.5383 374.152 69.293L374.104 68.813C373.741 69.2823 373.277 69.645 372.712 69.901C372.147 70.157 371.576 70.285 371 70.285C370.445 70.285 369.949 70.173 369.512 69.949C369.075 69.7143 368.733 69.3997 368.488 69.005C368.243 68.6103 368.12 68.1677 368.12 67.677ZM373.448 68.189C373.576 68.0503 373.677 67.9117 373.752 67.773C373.827 67.6343 373.864 67.5117 373.864 67.405V66.445C373.565 66.3277 373.251 66.2423 372.92 66.189C372.589 66.125 372.264 66.093 371.944 66.093C371.304 66.093 370.781 66.221 370.376 66.477C369.981 66.733 369.784 67.085 369.784 67.533C369.784 67.7783 369.848 68.013 369.976 68.237C370.115 68.461 370.307 68.6423 370.552 68.781C370.808 68.9197 371.123 68.989 371.496 68.989C371.88 68.989 372.248 68.9143 372.6 68.765C372.952 68.6157 373.235 68.4237 373.448 68.189ZM381.551 70.285C380.9 70.285 380.308 70.173 379.775 69.949C379.252 69.7143 378.799 69.3943 378.415 68.989C378.031 68.5837 377.732 68.1197 377.519 67.597C377.316 67.0743 377.215 66.5197 377.215 65.933C377.215 65.1437 377.391 64.4237 377.743 63.773C378.106 63.1223 378.607 62.5997 379.247 62.205C379.898 61.8103 380.666 61.613 381.551 61.613C382.404 61.613 383.146 61.805 383.775 62.189C384.415 62.5623 384.884 63.0637 385.183 63.693L383.471 64.237C383.279 63.885 383.007 63.613 382.655 63.421C382.314 63.2183 381.935 63.117 381.519 63.117C381.05 63.117 380.623 63.2397 380.239 63.485C379.866 63.7197 379.567 64.0503 379.343 64.477C379.13 64.893 379.023 65.3783 379.023 65.933C379.023 66.4663 379.135 66.9517 379.359 67.389C379.583 67.8157 379.882 68.157 380.255 68.413C380.639 68.6583 381.066 68.781 381.535 68.781C381.823 68.781 382.1 68.733 382.367 68.637C382.644 68.5303 382.884 68.3917 383.087 68.221C383.29 68.0397 383.434 67.8423 383.519 67.629L385.247 68.141C385.066 68.557 384.794 68.925 384.431 69.245C384.079 69.565 383.658 69.821 383.167 70.013C382.687 70.1943 382.148 70.285 381.551 70.285ZM386.697 70.125V61.757H388.457V70.125H386.697ZM386.697 60.381V58.445H388.457V60.381H386.697ZM394.332 70.285C393.67 70.285 393.078 70.173 392.556 69.949C392.033 69.7143 391.58 69.3943 391.196 68.989C390.822 68.5837 390.534 68.125 390.332 67.613C390.129 67.0903 390.028 66.5357 390.028 65.949C390.028 65.3623 390.129 64.8077 390.332 64.285C390.534 63.7623 390.822 63.3037 391.196 62.909C391.58 62.5037 392.033 62.189 392.556 61.965C393.089 61.7303 393.681 61.613 394.332 61.613C394.982 61.613 395.569 61.7303 396.092 61.965C396.625 62.189 397.078 62.5037 397.452 62.909C397.836 63.3037 398.129 63.7623 398.332 64.285C398.534 64.8077 398.636 65.3623 398.636 65.949C398.636 66.5357 398.534 67.0903 398.332 67.613C398.129 68.125 397.836 68.5837 397.452 68.989C397.078 69.3943 396.625 69.7143 396.092 69.949C395.569 70.173 394.982 70.285 394.332 70.285ZM391.836 65.965C391.836 66.4983 391.948 66.9783 392.172 67.405C392.396 67.8317 392.694 68.1677 393.068 68.413C393.441 68.6583 393.862 68.781 394.332 68.781C394.79 68.781 395.206 68.6583 395.58 68.413C395.964 68.157 396.268 67.8157 396.492 67.389C396.716 66.9517 396.828 66.4717 396.828 65.949C396.828 65.4157 396.716 64.9357 396.492 64.509C396.268 64.0823 395.964 63.7463 395.58 63.501C395.206 63.245 394.79 63.117 394.332 63.117C393.862 63.117 393.441 63.245 393.068 63.501C392.694 63.757 392.396 64.0983 392.172 64.525C391.948 64.941 391.836 65.421 391.836 65.965ZM407.701 70.125H405.941V65.437C405.941 64.6583 405.813 64.0877 405.557 63.725C405.311 63.3623 404.943 63.181 404.453 63.181C404.111 63.181 403.77 63.2663 403.429 63.437C403.098 63.6077 402.799 63.8423 402.533 64.141C402.266 64.429 402.074 64.765 401.957 65.149V70.125H400.197V61.757H401.797V63.437C402.01 63.0637 402.287 62.7437 402.629 62.477C402.981 62.1997 403.375 61.9863 403.813 61.837C404.25 61.6877 404.714 61.613 405.205 61.613C405.706 61.613 406.117 61.7037 406.437 61.885C406.767 62.0663 407.023 62.317 407.205 62.637C407.397 62.9463 407.525 63.309 407.589 63.725C407.663 64.1303 407.701 64.5623 407.701 65.021V70.125ZM409.136 67.677C409.136 67.1437 409.285 66.6797 409.584 66.285C409.893 65.8797 410.314 65.5703 410.848 65.357C411.381 65.133 412 65.021 412.704 65.021C413.077 65.021 413.456 65.0477 413.84 65.101C414.234 65.1543 414.581 65.2397 414.88 65.357V64.829C414.88 64.2423 414.704 63.7837 414.352 63.453C414 63.1223 413.493 62.957 412.832 62.957C412.362 62.957 411.92 63.0423 411.504 63.213C411.088 63.373 410.645 63.6023 410.176 63.901L409.584 62.717C410.138 62.3437 410.693 62.0663 411.248 61.885C411.813 61.7037 412.405 61.613 413.024 61.613C414.144 61.613 415.024 61.9117 415.664 62.509C416.314 63.0957 416.64 63.933 416.64 65.021V68.141C416.64 68.3437 416.672 68.4877 416.736 68.573C416.81 68.6583 416.933 68.7063 417.104 68.717V70.125C416.944 70.157 416.8 70.1783 416.672 70.189C416.544 70.1997 416.437 70.205 416.352 70.205C415.978 70.205 415.696 70.1143 415.504 69.933C415.312 69.7517 415.2 69.5383 415.168 69.293L415.12 68.813C414.757 69.2823 414.293 69.645 413.728 69.901C413.162 70.157 412.592 70.285 412.016 70.285C411.461 70.285 410.965 70.173 410.528 69.949C410.09 69.7143 409.749 69.3997 409.504 69.005C409.258 68.6103 409.136 68.1677 409.136 67.677ZM414.464 68.189C414.592 68.0503 414.693 67.9117 414.768 67.773C414.842 67.6343 414.88 67.5117 414.88 67.405V66.445C414.581 66.3277 414.266 66.2423 413.936 66.189C413.605 66.125 413.28 66.093 412.96 66.093C412.32 66.093 411.797 66.221 411.392 66.477C410.997 66.733 410.799 67.085 410.799 67.533C410.799 67.7783 410.864 68.013 410.992 68.237C411.13 68.461 411.322 68.6423 411.568 68.781C411.824 68.9197 412.138 68.989 412.512 68.989C412.896 68.989 413.264 68.9143 413.616 68.765C413.968 68.6157 414.25 68.4237 414.464 68.189ZM418.791 58.445H420.551V67.709C420.551 68.1357 420.615 68.4077 420.743 68.525C420.871 68.6423 421.031 68.701 421.223 68.701C421.436 68.701 421.633 68.6797 421.815 68.637C422.007 68.5943 422.172 68.541 422.311 68.477L422.567 69.869C422.311 69.9757 422.007 70.0663 421.655 70.141C421.303 70.2157 420.988 70.253 420.711 70.253C420.113 70.253 419.644 70.0877 419.303 69.757C418.961 69.4157 418.791 68.9463 418.791 68.349V58.445Z" fill="#1C1C5E"/>
</g>
<path d="M719.984 52.1875C719.984 25.1255 741.922 3.1875 768.984 3.1875H796.984C824.046 3.1875 845.984 25.1255 845.984 52.1875V80.1875C845.984 107.249 824.046 129.188 796.984 129.188H768.984C741.922 129.188 719.984 107.249 719.984 80.1875V52.1875Z" fill="#1C1C5E"/>
<path d="M719.984 52.1875C719.984 25.1255 741.922 3.1875 768.984 3.1875H796.984C824.046 3.1875 845.984 25.1255 845.984 52.1875V80.1875C845.984 107.249 824.046 129.188 796.984 129.188H768.984C741.922 129.188 719.984 107.249 719.984 80.1875V52.1875Z" stroke="white" stroke-width="2"/>
<path d="M762.95 78.0844C762.95 77.5617 763.099 77.1137 763.398 76.7404C763.697 76.3564 764.107 76.063 764.63 75.8604C765.163 75.647 765.777 75.5404 766.47 75.5404C766.875 75.5404 767.297 75.5724 767.734 75.6364C768.171 75.7004 768.561 75.7964 768.902 75.9244V75.2204C768.902 74.5164 768.694 73.9564 768.278 73.5404C767.862 73.1244 767.286 72.9164 766.55 72.9164C766.102 72.9164 765.659 73.0017 765.222 73.1724C764.795 73.3324 764.347 73.5724 763.878 73.8924L763.462 73.1244C764.006 72.751 764.539 72.4737 765.062 72.2924C765.585 72.1004 766.118 72.0044 766.662 72.0044C767.686 72.0044 768.497 72.2977 769.094 72.8844C769.691 73.471 769.99 74.2817 769.99 75.3164V79.1724C769.99 79.3217 770.022 79.4337 770.086 79.5084C770.15 79.5724 770.251 79.6097 770.39 79.6204V80.4844C770.273 80.495 770.171 80.5057 770.086 80.5164C770.001 80.527 769.937 80.527 769.894 80.5164C769.627 80.5057 769.425 80.4204 769.286 80.2604C769.147 80.1004 769.073 79.9297 769.062 79.7484L769.046 79.1404C768.673 79.6204 768.187 79.9937 767.59 80.2604C766.993 80.5164 766.385 80.6444 765.766 80.6444C765.233 80.6444 764.747 80.5324 764.31 80.3084C763.883 80.0737 763.547 79.7644 763.302 79.3804C763.067 78.9857 762.95 78.5537 762.95 78.0844ZM768.534 78.7244C768.651 78.575 768.742 78.431 768.806 78.2924C768.87 78.1537 768.902 78.031 768.902 77.9244V76.7084C768.539 76.5697 768.161 76.463 767.766 76.3884C767.382 76.3137 766.993 76.2764 766.598 76.2764C765.819 76.2764 765.19 76.431 764.71 76.7404C764.23 77.0497 763.99 77.471 763.99 78.0044C763.99 78.3137 764.07 78.607 764.23 78.8844C764.39 79.151 764.625 79.375 764.934 79.5564C765.243 79.727 765.606 79.8124 766.022 79.8124C766.545 79.8124 767.03 79.711 767.478 79.5084C767.937 79.3057 768.289 79.0444 768.534 78.7244ZM776.597 80.6444C775.903 80.6444 775.279 80.463 774.725 80.1004C774.181 79.7377 773.749 79.2897 773.429 78.7564V83.8924H772.341V72.1484H773.317V73.7644C773.647 73.2417 774.09 72.8204 774.645 72.5004C775.199 72.1697 775.791 72.0044 776.421 72.0044C776.997 72.0044 777.525 72.127 778.005 72.3724C778.485 72.607 778.901 72.927 779.253 73.3324C779.605 73.7377 779.877 74.2017 780.069 74.7244C780.271 75.2364 780.373 75.7697 780.373 76.3244C780.373 77.103 780.213 77.823 779.893 78.4844C779.583 79.135 779.146 79.6577 778.581 80.0524C778.015 80.447 777.354 80.6444 776.597 80.6444ZM776.293 79.6844C776.751 79.6844 777.162 79.5937 777.525 79.4124C777.887 79.2204 778.197 78.9644 778.453 78.6444C778.719 78.3244 778.922 77.967 779.061 77.5724C779.199 77.167 779.269 76.751 779.269 76.3244C779.269 75.8764 779.189 75.4497 779.029 75.0444C778.879 74.639 778.661 74.2817 778.373 73.9724C778.085 73.663 777.754 73.4177 777.381 73.2364C777.007 73.055 776.602 72.9644 776.165 72.9644C775.887 72.9644 775.599 73.0177 775.301 73.1244C775.002 73.231 774.714 73.3857 774.437 73.5884C774.17 73.7804 773.946 73.999 773.765 74.2444C773.583 74.4897 773.471 74.751 773.429 75.0284V77.5884C773.599 77.983 773.829 78.3404 774.117 78.6604C774.405 78.9697 774.735 79.2204 775.109 79.4124C775.493 79.5937 775.887 79.6844 776.293 79.6844ZM785.768 80.6444C785.17 80.6444 784.616 80.5324 784.104 80.3084C783.602 80.0737 783.165 79.759 782.792 79.3644C782.429 78.959 782.146 78.5004 781.944 77.9884C781.741 77.4657 781.64 76.9164 781.64 76.3404C781.64 75.743 781.741 75.1884 781.944 74.6764C782.146 74.1537 782.434 73.695 782.808 73.3004C783.181 72.895 783.618 72.5804 784.12 72.3564C784.632 72.1217 785.186 72.0044 785.784 72.0044C786.381 72.0044 786.93 72.1217 787.432 72.3564C787.933 72.5804 788.37 72.895 788.744 73.3004C789.117 73.695 789.405 74.1537 789.608 74.6764C789.81 75.1884 789.912 75.743 789.912 76.3404C789.912 76.9164 789.81 77.4657 789.608 77.9884C789.405 78.5004 789.117 78.959 788.744 79.3644C788.381 79.759 787.944 80.0737 787.432 80.3084C786.93 80.5324 786.376 80.6444 785.768 80.6444ZM782.744 76.3564C782.744 76.975 782.877 77.5404 783.144 78.0524C783.421 78.5537 783.789 78.9537 784.248 79.2524C784.706 79.5404 785.213 79.6844 785.768 79.6844C786.322 79.6844 786.829 79.535 787.288 79.2364C787.746 78.9377 788.114 78.5324 788.392 78.0204C788.669 77.4977 788.808 76.9324 788.808 76.3244C788.808 75.7057 788.669 75.1404 788.392 74.6284C788.114 74.1164 787.746 73.711 787.288 73.4124C786.829 73.1137 786.322 72.9644 785.768 72.9644C785.213 72.9644 784.706 73.119 784.248 73.4284C783.8 73.7377 783.437 74.1484 783.16 74.6604C782.882 75.1617 782.744 75.727 782.744 76.3564ZM791.731 80.4844V72.1484H792.819V80.4844H791.731ZM791.731 70.4044V68.8044H792.819V70.4044H791.731ZM798.768 80.6444C798.17 80.6444 797.616 80.5324 797.104 80.3084C796.602 80.0737 796.165 79.759 795.792 79.3644C795.429 78.959 795.146 78.5004 794.944 77.9884C794.741 77.4657 794.64 76.9164 794.64 76.3404C794.64 75.743 794.741 75.1884 794.944 74.6764C795.146 74.1537 795.434 73.695 795.808 73.3004C796.181 72.895 796.618 72.5804 797.12 72.3564C797.632 72.1217 798.186 72.0044 798.784 72.0044C799.381 72.0044 799.93 72.1217 800.432 72.3564C800.933 72.5804 801.37 72.895 801.744 73.3004C802.117 73.695 802.405 74.1537 802.608 74.6764C802.81 75.1884 802.912 75.743 802.912 76.3404C802.912 76.9164 802.81 77.4657 802.608 77.9884C802.405 78.5004 802.117 78.959 801.744 79.3644C801.381 79.759 800.944 80.0737 800.432 80.3084C799.93 80.5324 799.376 80.6444 798.768 80.6444ZM795.744 76.3564C795.744 76.975 795.877 77.5404 796.144 78.0524C796.421 78.5537 796.789 78.9537 797.248 79.2524C797.706 79.5404 798.213 79.6844 798.768 79.6844C799.322 79.6844 799.829 79.535 800.288 79.2364C800.746 78.9377 801.114 78.5324 801.392 78.0204C801.669 77.4977 801.808 76.9324 801.808 76.3244C801.808 75.7057 801.669 75.1404 801.392 74.6284C801.114 74.1164 800.746 73.711 800.288 73.4124C799.829 73.1137 799.322 72.9644 798.768 72.9644C798.213 72.9644 797.706 73.119 797.248 73.4284C796.8 73.7377 796.437 74.1484 796.16 74.6604C795.882 75.1617 795.744 75.727 795.744 76.3564Z" fill="white"/>
<path d="M749.629 56.4844V47.2364L745.517 54.4204H744.813L740.685 47.2364V56.4844H739.565V45.1244H740.717L745.149 52.9004L749.613 45.1244H750.749V56.4844H749.629ZM752.622 54.0844C752.622 53.5617 752.771 53.1137 753.07 52.7404C753.368 52.3564 753.779 52.063 754.302 51.8604C754.835 51.647 755.448 51.5404 756.142 51.5404C756.547 51.5404 756.968 51.5724 757.406 51.6364C757.843 51.7004 758.232 51.7964 758.574 51.9244V51.2204C758.574 50.5164 758.366 49.9564 757.95 49.5404C757.534 49.1244 756.958 48.9164 756.222 48.9164C755.774 48.9164 755.331 49.0017 754.894 49.1724C754.467 49.3324 754.019 49.5724 753.55 49.8924L753.134 49.1244C753.678 48.751 754.211 48.4737 754.734 48.2924C755.256 48.1004 755.79 48.0044 756.334 48.0044C757.358 48.0044 758.168 48.2977 758.766 48.8844C759.363 49.471 759.662 50.2817 759.662 51.3164V55.1724C759.662 55.3217 759.694 55.4337 759.758 55.5084C759.822 55.5724 759.923 55.6097 760.062 55.6204V56.4844C759.944 56.495 759.843 56.5057 759.758 56.5164C759.672 56.527 759.608 56.527 759.566 56.5164C759.299 56.5057 759.096 56.4204 758.958 56.2604C758.819 56.1004 758.744 55.9297 758.734 55.7484L758.718 55.1404C758.344 55.6204 757.859 55.9937 757.262 56.2604C756.664 56.5164 756.056 56.6444 755.438 56.6444C754.904 56.6444 754.419 56.5324 753.982 56.3084C753.555 56.0737 753.219 55.7644 752.974 55.3804C752.739 54.9857 752.622 54.5537 752.622 54.0844ZM758.206 54.7244C758.323 54.575 758.414 54.431 758.478 54.2924C758.542 54.1537 758.574 54.031 758.574 53.9244V52.7084C758.211 52.5697 757.832 52.463 757.438 52.3884C757.054 52.3137 756.664 52.2764 756.27 52.2764C755.491 52.2764 754.862 52.431 754.382 52.7404C753.902 53.0497 753.662 53.471 753.662 54.0044C753.662 54.3137 753.742 54.607 753.902 54.8844C754.062 55.151 754.296 55.375 754.606 55.5564C754.915 55.727 755.278 55.8124 755.694 55.8124C756.216 55.8124 756.702 55.711 757.15 55.5084C757.608 55.3057 757.96 55.0444 758.206 54.7244ZM765.95 56.0844C765.865 56.1164 765.731 56.175 765.55 56.2604C765.369 56.3457 765.15 56.4204 764.894 56.4844C764.638 56.5484 764.361 56.5804 764.062 56.5804C763.753 56.5804 763.459 56.5217 763.182 56.4044C762.915 56.287 762.702 56.111 762.542 55.8764C762.382 55.631 762.302 55.3324 762.302 54.9804V49.0124H761.15V48.1484H762.302V45.3324H763.39V48.1484H765.31V49.0124H763.39V54.6764C763.411 54.975 763.518 55.199 763.71 55.3484C763.913 55.4977 764.142 55.5724 764.398 55.5724C764.697 55.5724 764.969 55.5244 765.214 55.4284C765.459 55.3217 765.609 55.247 765.662 55.2044L765.95 56.0844ZM770.769 56.6444C770.171 56.6444 769.617 56.5324 769.105 56.3084C768.593 56.0737 768.15 55.759 767.777 55.3644C767.403 54.959 767.11 54.495 766.897 53.9724C766.694 53.4497 766.593 52.8897 766.593 52.2924C766.593 51.5137 766.769 50.799 767.121 50.1484C767.483 49.4977 767.979 48.9804 768.609 48.5964C769.238 48.2017 769.953 48.0044 770.753 48.0044C771.574 48.0044 772.289 48.2017 772.897 48.5964C773.515 48.991 774.001 49.5137 774.353 50.1644C774.705 50.8044 774.881 51.5084 774.881 52.2764C774.881 52.3617 774.881 52.447 774.881 52.5324C774.881 52.607 774.875 52.6657 774.865 52.7084H767.729C767.782 53.3057 767.947 53.839 768.225 54.3084C768.513 54.767 768.881 55.135 769.329 55.4124C769.787 55.679 770.283 55.8124 770.817 55.8124C771.361 55.8124 771.873 55.6737 772.353 55.3964C772.843 55.119 773.185 54.7564 773.377 54.3084L774.321 54.5644C774.15 54.959 773.889 55.3164 773.537 55.6364C773.185 55.9564 772.769 56.207 772.289 56.3884C771.819 56.559 771.313 56.6444 770.769 56.6444ZM767.697 51.9244H773.857C773.814 51.3164 773.649 50.783 773.361 50.3244C773.083 49.8657 772.715 49.5084 772.257 49.2524C771.809 48.9857 771.313 48.8524 770.769 48.8524C770.225 48.8524 769.729 48.9857 769.281 49.2524C768.833 49.5084 768.465 49.871 768.177 50.3404C767.899 50.799 767.739 51.327 767.697 51.9244ZM780.719 49.1084C779.994 49.1297 779.354 49.3324 778.799 49.7164C778.255 50.1004 777.871 50.6284 777.647 51.3004V56.4844H776.559V48.1484H777.583V50.1484C777.871 49.5617 778.25 49.087 778.719 48.7244C779.199 48.3617 779.706 48.159 780.239 48.1164C780.346 48.1057 780.437 48.1004 780.511 48.1004C780.597 48.1004 780.666 48.1057 780.719 48.1164V49.1084ZM782.169 56.4844V48.1484H783.257V56.4844H782.169ZM782.169 46.4044V44.8044H783.257V46.4044H782.169ZM784.981 54.0844C784.981 53.5617 785.13 53.1137 785.429 52.7404C785.728 52.3564 786.138 52.063 786.661 51.8604C787.194 51.647 787.808 51.5404 788.501 51.5404C788.906 51.5404 789.328 51.5724 789.765 51.6364C790.202 51.7004 790.592 51.7964 790.933 51.9244V51.2204C790.933 50.5164 790.725 49.9564 790.309 49.5404C789.893 49.1244 789.317 48.9164 788.581 48.9164C788.133 48.9164 787.69 49.0017 787.253 49.1724C786.826 49.3324 786.378 49.5724 785.909 49.8924L785.493 49.1244C786.037 48.751 786.57 48.4737 787.093 48.2924C787.616 48.1004 788.149 48.0044 788.693 48.0044C789.717 48.0044 790.528 48.2977 791.125 48.8844C791.722 49.471 792.021 50.2817 792.021 51.3164V55.1724C792.021 55.3217 792.053 55.4337 792.117 55.5084C792.181 55.5724 792.282 55.6097 792.421 55.6204V56.4844C792.304 56.495 792.202 56.5057 792.117 56.5164C792.032 56.527 791.968 56.527 791.925 56.5164C791.658 56.5057 791.456 56.4204 791.317 56.2604C791.178 56.1004 791.104 55.9297 791.093 55.7484L791.077 55.1404C790.704 55.6204 790.218 55.9937 789.621 56.2604C789.024 56.5164 788.416 56.6444 787.797 56.6444C787.264 56.6444 786.778 56.5324 786.341 56.3084C785.914 56.0737 785.578 55.7644 785.333 55.3804C785.098 54.9857 784.981 54.5537 784.981 54.0844ZM790.565 54.7244C790.682 54.575 790.773 54.431 790.837 54.2924C790.901 54.1537 790.933 54.031 790.933 53.9244V52.7084C790.57 52.5697 790.192 52.463 789.797 52.3884C789.413 52.3137 789.024 52.2764 788.629 52.2764C787.85 52.2764 787.221 52.431 786.741 52.7404C786.261 53.0497 786.021 53.471 786.021 54.0044C786.021 54.3137 786.101 54.607 786.261 54.8844C786.421 55.151 786.656 55.375 786.965 55.5564C787.274 55.727 787.637 55.8124 788.053 55.8124C788.576 55.8124 789.061 55.711 789.509 55.5084C789.968 55.3057 790.32 55.0444 790.565 54.7244ZM794.372 56.4844V48.1484H795.46V56.4844H794.372ZM794.372 46.4044V44.8044H795.46V46.4044H794.372ZM800.592 56.6444C799.91 56.6444 799.275 56.5324 798.688 56.3084C798.102 56.0844 797.595 55.743 797.168 55.2844L797.616 54.5164C798.086 54.9537 798.555 55.2737 799.024 55.4764C799.504 55.6684 800.011 55.7644 800.544 55.7644C801.195 55.7644 801.723 55.6364 802.128 55.3804C802.534 55.1137 802.736 54.735 802.736 54.2444C802.736 53.9137 802.635 53.663 802.432 53.4924C802.24 53.311 801.958 53.167 801.584 53.0604C801.222 52.943 800.784 52.8204 800.272 52.6924C799.696 52.5324 799.211 52.367 798.816 52.1964C798.432 52.015 798.139 51.791 797.936 51.5244C797.744 51.247 797.648 50.8897 797.648 50.4524C797.648 49.9084 797.782 49.4604 798.048 49.1084C798.326 48.7457 798.699 48.4737 799.168 48.2924C799.648 48.1004 800.182 48.0044 800.768 48.0044C801.408 48.0044 801.974 48.1057 802.464 48.3084C802.955 48.511 803.355 48.7937 803.664 49.1564L803.136 49.8924C802.838 49.551 802.48 49.3004 802.064 49.1404C801.659 48.9697 801.206 48.8844 800.704 48.8844C800.363 48.8844 800.038 48.9324 799.728 49.0284C799.419 49.1137 799.163 49.263 798.96 49.4764C798.768 49.679 798.672 49.9617 798.672 50.3244C798.672 50.623 798.747 50.8577 798.896 51.0284C799.046 51.1884 799.27 51.327 799.568 51.4444C799.867 51.551 800.235 51.6684 800.672 51.7964C801.302 51.967 801.851 52.143 802.32 52.3244C802.79 52.495 803.152 52.719 803.408 52.9964C803.664 53.2737 803.792 53.663 803.792 54.1644C803.792 54.943 803.499 55.551 802.912 55.9884C802.326 56.4257 801.552 56.6444 800.592 56.6444ZM809.109 52.3404C809.109 51.551 809.269 50.831 809.589 50.1804C809.919 49.519 810.373 48.991 810.949 48.5964C811.525 48.2017 812.181 48.0044 812.917 48.0044C813.61 48.0044 814.229 48.191 814.773 48.5644C815.327 48.927 815.759 49.3697 816.069 49.8924V44.8044H817.157V55.1724C817.157 55.3217 817.189 55.4337 817.253 55.5084C817.317 55.5724 817.413 55.6097 817.541 55.6204V56.4844C817.327 56.5164 817.162 56.527 817.045 56.5164C816.821 56.5057 816.623 56.415 816.453 56.2444C816.282 56.0737 816.197 55.887 816.197 55.6844V54.8684C815.866 55.4124 815.418 55.8444 814.853 56.1644C814.287 56.4844 813.701 56.6444 813.093 56.6444C812.517 56.6444 811.983 56.527 811.493 56.2924C811.013 56.0577 810.591 55.7377 810.229 55.3324C809.877 54.927 809.599 54.4684 809.397 53.9564C809.205 53.4337 809.109 52.895 809.109 52.3404ZM816.069 53.6204V51.0444C815.93 50.6604 815.706 50.3137 815.397 50.0044C815.087 49.6844 814.735 49.4337 814.341 49.2524C813.957 49.0604 813.573 48.9644 813.189 48.9644C812.741 48.9644 812.335 49.0604 811.973 49.2524C811.61 49.4337 811.295 49.6844 811.029 50.0044C810.773 50.3244 810.575 50.687 810.437 51.0924C810.298 51.4977 810.229 51.9137 810.229 52.3404C810.229 52.7884 810.303 53.215 810.453 53.6204C810.613 54.0257 810.837 54.3884 811.125 54.7084C811.413 55.0177 811.743 55.2577 812.117 55.4284C812.49 55.599 812.895 55.6844 813.333 55.6844C813.61 55.6844 813.898 55.631 814.197 55.5244C814.495 55.4177 814.778 55.2737 815.045 55.0924C815.322 54.9004 815.551 54.6764 815.733 54.4204C815.914 54.1644 816.026 53.8977 816.069 53.6204ZM823.222 56.6444C822.625 56.6444 822.07 56.5324 821.558 56.3084C821.046 56.0737 820.603 55.759 820.23 55.3644C819.857 54.959 819.563 54.495 819.35 53.9724C819.147 53.4497 819.046 52.8897 819.046 52.2924C819.046 51.5137 819.222 50.799 819.574 50.1484C819.937 49.4977 820.433 48.9804 821.062 48.5964C821.691 48.2017 822.406 48.0044 823.206 48.0044C824.027 48.0044 824.742 48.2017 825.35 48.5964C825.969 48.991 826.454 49.5137 826.806 50.1644C827.158 50.8044 827.334 51.5084 827.334 52.2764C827.334 52.3617 827.334 52.447 827.334 52.5324C827.334 52.607 827.329 52.6657 827.318 52.7084H820.182C820.235 53.3057 820.401 53.839 820.678 54.3084C820.966 54.767 821.334 55.135 821.782 55.4124C822.241 55.679 822.737 55.8124 823.27 55.8124C823.814 55.8124 824.326 55.6737 824.806 55.3964C825.297 55.119 825.638 54.7564 825.83 54.3084L826.774 54.5644C826.603 54.959 826.342 55.3164 825.99 55.6364C825.638 55.9564 825.222 56.207 824.742 56.3884C824.273 56.559 823.766 56.6444 823.222 56.6444ZM820.15 51.9244H826.31C826.267 51.3164 826.102 50.783 825.814 50.3244C825.537 49.8657 825.169 49.5084 824.71 49.2524C824.262 48.9857 823.766 48.8524 823.222 48.8524C822.678 48.8524 822.182 48.9857 821.734 49.2524C821.286 49.5084 820.918 49.871 820.63 50.3404C820.353 50.799 820.193 51.327 820.15 51.9244Z" fill="white"/>
<path d="M1126.64 52.1875C1126.64 25.1255 1148.58 3.1875 1175.64 3.1875H1203.64C1230.7 3.1875 1252.64 25.1255 1252.64 52.1875V80.1875C1252.64 107.249 1230.7 129.188 1203.64 129.188H1175.64C1148.58 129.188 1126.64 107.249 1126.64 80.1875V52.1875Z" fill="#1C1C5E"/>
<path d="M1126.64 52.1875C1126.64 25.1255 1148.58 3.1875 1175.64 3.1875H1203.64C1230.7 3.1875 1252.64 25.1255 1252.64 52.1875V80.1875C1252.64 107.249 1230.7 129.188 1203.64 129.188H1175.64C1148.58 129.188 1126.64 107.249 1126.64 80.1875V52.1875Z" stroke="white" stroke-width="2"/>
<path d="M1146.18 80.0844C1146.1 80.1164 1145.97 80.175 1145.78 80.2604C1145.6 80.3457 1145.38 80.4204 1145.13 80.4844C1144.87 80.5484 1144.6 80.5804 1144.3 80.5804C1143.99 80.5804 1143.69 80.5217 1143.42 80.4044C1143.15 80.287 1142.94 80.111 1142.78 79.8764C1142.62 79.631 1142.54 79.3324 1142.54 78.9804V73.0124H1141.38V72.1484H1142.54V69.3324H1143.62V72.1484H1145.54V73.0124H1143.62V78.6764C1143.65 78.975 1143.75 79.199 1143.94 79.3484C1144.15 79.4977 1144.38 79.5724 1144.63 79.5724C1144.93 79.5724 1145.2 79.5244 1145.45 79.4284C1145.69 79.3217 1145.84 79.247 1145.9 79.2044L1146.18 80.0844ZM1151.7 73.1084C1150.98 73.1297 1150.34 73.3324 1149.78 73.7164C1149.24 74.1004 1148.86 74.6284 1148.63 75.3004V80.4844H1147.54V72.1484H1148.57V74.1484C1148.86 73.5617 1149.23 73.087 1149.7 72.7244C1150.18 72.3617 1150.69 72.159 1151.22 72.1164C1151.33 72.1057 1151.42 72.1004 1151.5 72.1004C1151.58 72.1004 1151.65 72.1057 1151.7 72.1164V73.1084ZM1156.49 80.6444C1155.89 80.6444 1155.34 80.5324 1154.82 80.3084C1154.31 80.0737 1153.87 79.759 1153.5 79.3644C1153.12 78.959 1152.83 78.495 1152.62 77.9724C1152.41 77.4497 1152.31 76.8897 1152.31 76.2924C1152.31 75.5137 1152.49 74.799 1152.84 74.1484C1153.2 73.4977 1153.7 72.9804 1154.33 72.5964C1154.96 72.2017 1155.67 72.0044 1156.47 72.0044C1157.29 72.0044 1158.01 72.2017 1158.62 72.5964C1159.23 72.991 1159.72 73.5137 1160.07 74.1644C1160.42 74.8044 1160.6 75.5084 1160.6 76.2764C1160.6 76.3617 1160.6 76.447 1160.6 76.5324C1160.6 76.607 1160.59 76.6657 1160.58 76.7084H1153.45C1153.5 77.3057 1153.67 77.839 1153.94 78.3084C1154.23 78.767 1154.6 79.135 1155.05 79.4124C1155.51 79.679 1156 79.8124 1156.54 79.8124C1157.08 79.8124 1157.59 79.6737 1158.07 79.3964C1158.56 79.119 1158.9 78.7564 1159.1 78.3084L1160.04 78.5644C1159.87 78.959 1159.61 79.3164 1159.26 79.6364C1158.9 79.9564 1158.49 80.207 1158.01 80.3884C1157.54 80.559 1157.03 80.6444 1156.49 80.6444ZM1153.42 75.9244H1159.58C1159.53 75.3164 1159.37 74.783 1159.08 74.3244C1158.8 73.8657 1158.43 73.5084 1157.98 73.2524C1157.53 72.9857 1157.03 72.8524 1156.49 72.8524C1155.94 72.8524 1155.45 72.9857 1155 73.2524C1154.55 73.5084 1154.18 73.871 1153.9 74.3404C1153.62 74.799 1153.46 75.327 1153.42 75.9244ZM1162.28 80.4844V72.1484H1163.37V80.4844H1162.28ZM1162.28 70.4044V68.8044H1163.37V70.4044H1162.28ZM1172.77 80.4844H1171.68V75.8284C1171.68 74.847 1171.54 74.1324 1171.25 73.6844C1170.96 73.2257 1170.51 72.9964 1169.89 72.9964C1169.46 72.9964 1169.04 73.103 1168.63 73.3164C1168.21 73.519 1167.84 73.8017 1167.52 74.1644C1167.21 74.5164 1166.99 74.9217 1166.85 75.3804V80.4844H1165.76V72.1484H1166.75V74.0364C1166.98 73.631 1167.27 73.279 1167.63 72.9804C1168 72.671 1168.41 72.431 1168.87 72.2604C1169.33 72.0897 1169.8 72.0044 1170.29 72.0044C1170.75 72.0044 1171.14 72.0897 1171.46 72.2604C1171.78 72.431 1172.03 72.6764 1172.23 72.9964C1172.42 73.3057 1172.56 73.6844 1172.64 74.1324C1172.73 74.5697 1172.77 75.0604 1172.77 75.6044V80.4844ZM1174.42 78.0844C1174.42 77.5617 1174.57 77.1137 1174.87 76.7404C1175.17 76.3564 1175.58 76.063 1176.1 75.8604C1176.63 75.647 1177.25 75.5404 1177.94 75.5404C1178.34 75.5404 1178.77 75.5724 1179.2 75.6364C1179.64 75.7004 1180.03 75.7964 1180.37 75.9244V75.2204C1180.37 74.5164 1180.16 73.9564 1179.75 73.5404C1179.33 73.1244 1178.75 72.9164 1178.02 72.9164C1177.57 72.9164 1177.13 73.0017 1176.69 73.1724C1176.26 73.3324 1175.82 73.5724 1175.35 73.8924L1174.93 73.1244C1175.47 72.751 1176.01 72.4737 1176.53 72.2924C1177.05 72.1004 1177.59 72.0044 1178.13 72.0044C1179.15 72.0044 1179.97 72.2977 1180.56 72.8844C1181.16 73.471 1181.46 74.2817 1181.46 75.3164V79.1724C1181.46 79.3217 1181.49 79.4337 1181.55 79.5084C1181.62 79.5724 1181.72 79.6097 1181.86 79.6204V80.4844C1181.74 80.495 1181.64 80.5057 1181.55 80.5164C1181.47 80.527 1181.41 80.527 1181.36 80.5164C1181.1 80.5057 1180.89 80.4204 1180.75 80.2604C1180.62 80.1004 1180.54 79.9297 1180.53 79.7484L1180.51 79.1404C1180.14 79.6204 1179.66 79.9937 1179.06 80.2604C1178.46 80.5164 1177.85 80.6444 1177.23 80.6444C1176.7 80.6444 1176.22 80.5324 1175.78 80.3084C1175.35 80.0737 1175.02 79.7644 1174.77 79.3804C1174.54 78.9857 1174.42 78.5537 1174.42 78.0844ZM1180 78.7244C1180.12 78.575 1180.21 78.431 1180.27 78.2924C1180.34 78.1537 1180.37 78.031 1180.37 77.9244V76.7084C1180.01 76.5697 1179.63 76.463 1179.23 76.3884C1178.85 76.3137 1178.46 76.2764 1178.07 76.2764C1177.29 76.2764 1176.66 76.431 1176.18 76.7404C1175.7 77.0497 1175.46 77.471 1175.46 78.0044C1175.46 78.3137 1175.54 78.607 1175.7 78.8844C1175.86 79.151 1176.09 79.375 1176.4 79.5564C1176.71 79.727 1177.07 79.8124 1177.49 79.8124C1178.01 79.8124 1178.5 79.711 1178.95 79.5084C1179.41 79.3057 1179.76 79.0444 1180 78.7244ZM1196.21 80.4844H1195.12V75.8284C1195.12 74.8577 1194.97 74.143 1194.66 73.6844C1194.35 73.2257 1193.89 72.9964 1193.28 72.9964C1192.65 72.9964 1192.09 73.2204 1191.59 73.6684C1191.09 74.1164 1190.75 74.6924 1190.55 75.3964V80.4844H1189.46V75.8284C1189.46 74.847 1189.31 74.1324 1189.01 73.6844C1188.71 73.2257 1188.25 72.9964 1187.63 72.9964C1187.01 72.9964 1186.45 73.215 1185.95 73.6524C1185.45 74.0897 1185.1 74.6657 1184.9 75.3804V80.4844H1183.81V72.1484H1184.8V74.0364C1185.15 73.3857 1185.6 72.8844 1186.15 72.5324C1186.7 72.1804 1187.31 72.0044 1187.99 72.0044C1188.68 72.0044 1189.24 72.2017 1189.67 72.5964C1190.09 72.991 1190.35 73.5084 1190.45 74.1484C1190.83 73.4444 1191.29 72.911 1191.83 72.5484C1192.37 72.1857 1192.98 72.0044 1193.67 72.0044C1194.13 72.0044 1194.53 72.0897 1194.85 72.2604C1195.18 72.431 1195.44 72.6764 1195.63 72.9964C1195.84 73.3057 1195.98 73.6844 1196.07 74.1324C1196.16 74.5697 1196.21 75.0604 1196.21 75.6044V80.4844ZM1202.11 80.6444C1201.52 80.6444 1200.96 80.5324 1200.45 80.3084C1199.94 80.0737 1199.49 79.759 1199.12 79.3644C1198.75 78.959 1198.45 78.495 1198.24 77.9724C1198.04 77.4497 1197.94 76.8897 1197.94 76.2924C1197.94 75.5137 1198.11 74.799 1198.46 74.1484C1198.83 73.4977 1199.32 72.9804 1199.95 72.5964C1200.58 72.2017 1201.3 72.0044 1202.1 72.0044C1202.92 72.0044 1203.63 72.2017 1204.24 72.5964C1204.86 72.991 1205.34 73.5137 1205.7 74.1644C1206.05 74.8044 1206.22 75.5084 1206.22 76.2764C1206.22 76.3617 1206.22 76.447 1206.22 76.5324C1206.22 76.607 1206.22 76.6657 1206.21 76.7084H1199.07C1199.13 77.3057 1199.29 77.839 1199.57 78.3084C1199.86 78.767 1200.22 79.135 1200.67 79.4124C1201.13 79.679 1201.63 79.8124 1202.16 79.8124C1202.7 79.8124 1203.22 79.6737 1203.7 79.3964C1204.19 79.119 1204.53 78.7564 1204.72 78.3084L1205.66 78.5644C1205.49 78.959 1205.23 79.3164 1204.88 79.6364C1204.53 79.9564 1204.11 80.207 1203.63 80.3884C1203.16 80.559 1202.66 80.6444 1202.11 80.6444ZM1199.04 75.9244H1205.2C1205.16 75.3164 1204.99 74.783 1204.7 74.3244C1204.43 73.8657 1204.06 73.5084 1203.6 73.2524C1203.15 72.9857 1202.66 72.8524 1202.11 72.8524C1201.57 72.8524 1201.07 72.9857 1200.62 73.2524C1200.18 73.5084 1199.81 73.871 1199.52 74.3404C1199.24 74.799 1199.08 75.327 1199.04 75.9244ZM1214.91 80.4844H1213.82V75.8284C1213.82 74.847 1213.68 74.1324 1213.39 73.6844C1213.1 73.2257 1212.65 72.9964 1212.03 72.9964C1211.6 72.9964 1211.18 73.103 1210.77 73.3164C1210.35 73.519 1209.98 73.8017 1209.66 74.1644C1209.35 74.5164 1209.13 74.9217 1208.99 75.3804V80.4844H1207.9V72.1484H1208.9V74.0364C1209.12 73.631 1209.41 73.279 1209.78 72.9804C1210.14 72.671 1210.55 72.431 1211.01 72.2604C1211.47 72.0897 1211.94 72.0044 1212.43 72.0044C1212.89 72.0044 1213.28 72.0897 1213.6 72.2604C1213.92 72.431 1214.18 72.6764 1214.37 72.9964C1214.56 73.3057 1214.7 73.6844 1214.78 74.1324C1214.87 74.5697 1214.91 75.0604 1214.91 75.6044V80.4844ZM1221.15 80.0844C1221.07 80.1164 1220.93 80.175 1220.75 80.2604C1220.57 80.3457 1220.35 80.4204 1220.1 80.4844C1219.84 80.5484 1219.56 80.5804 1219.27 80.5804C1218.96 80.5804 1218.66 80.5217 1218.39 80.4044C1218.12 80.287 1217.91 80.111 1217.75 79.8764C1217.59 79.631 1217.51 79.3324 1217.51 78.9804V73.0124H1216.35V72.1484H1217.51V69.3324H1218.59V72.1484H1220.51V73.0124H1218.59V78.6764C1218.61 78.975 1218.72 79.199 1218.91 79.3484C1219.12 79.4977 1219.35 79.5724 1219.6 79.5724C1219.9 79.5724 1220.17 79.5244 1220.42 79.4284C1220.66 79.3217 1220.81 79.247 1220.87 79.2044L1221.15 80.0844ZM1225.92 80.6444C1225.33 80.6444 1224.77 80.5324 1224.26 80.3084C1223.76 80.0737 1223.32 79.759 1222.95 79.3644C1222.59 78.959 1222.3 78.5004 1222.1 77.9884C1221.9 77.4657 1221.8 76.9164 1221.8 76.3404C1221.8 75.743 1221.9 75.1884 1222.1 74.6764C1222.3 74.1537 1222.59 73.695 1222.96 73.3004C1223.34 72.895 1223.77 72.5804 1224.28 72.3564C1224.79 72.1217 1225.34 72.0044 1225.94 72.0044C1226.54 72.0044 1227.09 72.1217 1227.59 72.3564C1228.09 72.5804 1228.53 72.895 1228.9 73.3004C1229.27 73.695 1229.56 74.1537 1229.76 74.6764C1229.97 75.1884 1230.07 75.743 1230.07 76.3404C1230.07 76.9164 1229.97 77.4657 1229.76 77.9884C1229.56 78.5004 1229.27 78.959 1228.9 79.3644C1228.54 79.759 1228.1 80.0737 1227.59 80.3084C1227.09 80.5324 1226.53 80.6444 1225.92 80.6444ZM1222.9 76.3564C1222.9 76.975 1223.03 77.5404 1223.3 78.0524C1223.58 78.5537 1223.95 78.9537 1224.4 79.2524C1224.86 79.5404 1225.37 79.6844 1225.92 79.6844C1226.48 79.6844 1226.99 79.535 1227.44 79.2364C1227.9 78.9377 1228.27 78.5324 1228.55 78.0204C1228.83 77.4977 1228.96 76.9324 1228.96 76.3244C1228.96 75.7057 1228.83 75.1404 1228.55 74.6284C1228.27 74.1164 1227.9 73.711 1227.44 73.4124C1226.99 73.1137 1226.48 72.9644 1225.92 72.9644C1225.37 72.9644 1224.86 73.119 1224.4 73.4284C1223.96 73.7377 1223.59 74.1484 1223.32 74.6604C1223.04 75.1617 1222.9 75.727 1222.9 76.3564ZM1234.62 80.6444C1233.94 80.6444 1233.31 80.5324 1232.72 80.3084C1232.13 80.0844 1231.63 79.743 1231.2 79.2844L1231.65 78.5164C1232.12 78.9537 1232.59 79.2737 1233.06 79.4764C1233.54 79.6684 1234.04 79.7644 1234.58 79.7644C1235.23 79.7644 1235.75 79.6364 1236.16 79.3804C1236.56 79.1137 1236.77 78.735 1236.77 78.2444C1236.77 77.9137 1236.67 77.663 1236.46 77.4924C1236.27 77.311 1235.99 77.167 1235.62 77.0604C1235.25 76.943 1234.82 76.8204 1234.3 76.6924C1233.73 76.5324 1233.24 76.367 1232.85 76.1964C1232.46 76.015 1232.17 75.791 1231.97 75.5244C1231.78 75.247 1231.68 74.8897 1231.68 74.4524C1231.68 73.9084 1231.81 73.4604 1232.08 73.1084C1232.36 72.7457 1232.73 72.4737 1233.2 72.2924C1233.68 72.1004 1234.21 72.0044 1234.8 72.0044C1235.44 72.0044 1236 72.1057 1236.5 72.3084C1236.99 72.511 1237.39 72.7937 1237.7 73.1564L1237.17 73.8924C1236.87 73.551 1236.51 73.3004 1236.1 73.1404C1235.69 72.9697 1235.24 72.8844 1234.74 72.8844C1234.39 72.8844 1234.07 72.9324 1233.76 73.0284C1233.45 73.1137 1233.19 73.263 1232.99 73.4764C1232.8 73.679 1232.7 73.9617 1232.7 74.3244C1232.7 74.623 1232.78 74.8577 1232.93 75.0284C1233.08 75.1884 1233.3 75.327 1233.6 75.4444C1233.9 75.551 1234.27 75.6684 1234.7 75.7964C1235.33 75.967 1235.88 76.143 1236.35 76.3244C1236.82 76.495 1237.18 76.719 1237.44 76.9964C1237.7 77.2737 1237.82 77.663 1237.82 78.1644C1237.82 78.943 1237.53 79.551 1236.94 79.9884C1236.36 80.4257 1235.58 80.6444 1234.62 80.6444Z" fill="white"/>
<path d="M1180.82 56.4844V47.2364L1176.7 54.4204H1176L1171.87 47.2364V56.4844H1170.75V45.1244H1171.9L1176.34 52.9004L1180.8 45.1244H1181.94V56.4844H1180.82ZM1188.03 56.6444C1187.44 56.6444 1186.88 56.5324 1186.37 56.3084C1185.86 56.0737 1185.42 55.759 1185.04 55.3644C1184.67 54.959 1184.38 54.495 1184.16 53.9724C1183.96 53.4497 1183.86 52.8897 1183.86 52.2924C1183.86 51.5137 1184.03 50.799 1184.39 50.1484C1184.75 49.4977 1185.25 48.9804 1185.87 48.5964C1186.5 48.2017 1187.22 48.0044 1188.02 48.0044C1188.84 48.0044 1189.55 48.2017 1190.16 48.5964C1190.78 48.991 1191.27 49.5137 1191.62 50.1644C1191.97 50.8044 1192.15 51.5084 1192.15 52.2764C1192.15 52.3617 1192.15 52.447 1192.15 52.5324C1192.15 52.607 1192.14 52.6657 1192.13 52.7084H1184.99C1185.05 53.3057 1185.21 53.839 1185.49 54.3084C1185.78 54.767 1186.15 55.135 1186.59 55.4124C1187.05 55.679 1187.55 55.8124 1188.08 55.8124C1188.63 55.8124 1189.14 55.6737 1189.62 55.3964C1190.11 55.119 1190.45 54.7564 1190.64 54.3084L1191.59 54.5644C1191.42 54.959 1191.15 55.3164 1190.8 55.6364C1190.45 55.9564 1190.03 56.207 1189.55 56.3884C1189.09 56.559 1188.58 56.6444 1188.03 56.6444ZM1184.96 51.9244H1191.12C1191.08 51.3164 1190.91 50.783 1190.63 50.3244C1190.35 49.8657 1189.98 49.5084 1189.52 49.2524C1189.07 48.9857 1188.58 48.8524 1188.03 48.8524C1187.49 48.8524 1186.99 48.9857 1186.55 49.2524C1186.1 49.5084 1185.73 49.871 1185.44 50.3404C1185.17 50.799 1185.01 51.327 1184.96 51.9244ZM1193.75 53.0444V48.1484H1194.83V52.8524C1194.83 53.8017 1194.99 54.511 1195.31 54.9804C1195.64 55.4497 1196.13 55.6844 1196.77 55.6844C1197.2 55.6844 1197.61 55.5937 1198 55.4124C1198.41 55.2204 1198.76 54.9537 1199.07 54.6124C1199.38 54.2604 1199.62 53.855 1199.78 53.3964V48.1484H1200.87V55.1724C1200.87 55.3217 1200.9 55.4337 1200.96 55.5084C1201.03 55.5724 1201.12 55.6097 1201.25 55.6204V56.4844C1201.12 56.495 1201.02 56.5004 1200.95 56.5004C1200.87 56.511 1200.8 56.5164 1200.74 56.5164C1200.52 56.495 1200.34 56.4097 1200.18 56.2604C1200.03 56.111 1199.95 55.9297 1199.94 55.7164L1199.91 54.5964C1199.54 55.2364 1199.05 55.7377 1198.42 56.1004C1197.8 56.463 1197.13 56.6444 1196.4 56.6444C1195.53 56.6444 1194.87 56.3404 1194.42 55.7324C1193.97 55.1244 1193.75 54.2284 1193.75 53.0444ZM1206.06 56.6444C1205.38 56.6444 1204.74 56.5324 1204.16 56.3084C1203.57 56.0844 1203.06 55.743 1202.64 55.2844L1203.09 54.5164C1203.55 54.9537 1204.02 55.2737 1204.49 55.4764C1204.97 55.6684 1205.48 55.7644 1206.01 55.7644C1206.66 55.7644 1207.19 55.6364 1207.6 55.3804C1208 55.1137 1208.21 54.735 1208.21 54.2444C1208.21 53.9137 1208.1 53.663 1207.9 53.4924C1207.71 53.311 1207.43 53.167 1207.05 53.0604C1206.69 52.943 1206.25 52.8204 1205.74 52.6924C1205.17 52.5324 1204.68 52.367 1204.29 52.1964C1203.9 52.015 1203.61 51.791 1203.41 51.5244C1203.21 51.247 1203.12 50.8897 1203.12 50.4524C1203.12 49.9084 1203.25 49.4604 1203.52 49.1084C1203.79 48.7457 1204.17 48.4737 1204.64 48.2924C1205.12 48.1004 1205.65 48.0044 1206.24 48.0044C1206.88 48.0044 1207.44 48.1057 1207.93 48.3084C1208.42 48.511 1208.82 48.7937 1209.13 49.1564L1208.61 49.8924C1208.31 49.551 1207.95 49.3004 1207.53 49.1404C1207.13 48.9697 1206.67 48.8844 1206.17 48.8844C1205.83 48.8844 1205.51 48.9324 1205.2 49.0284C1204.89 49.1137 1204.63 49.263 1204.43 49.4764C1204.24 49.679 1204.14 49.9617 1204.14 50.3244C1204.14 50.623 1204.22 50.8577 1204.37 51.0284C1204.51 51.1884 1204.74 51.327 1205.04 51.4444C1205.34 51.551 1205.7 51.6684 1206.14 51.7964C1206.77 51.967 1207.32 52.143 1207.79 52.3244C1208.26 52.495 1208.62 52.719 1208.88 52.9964C1209.13 53.2737 1209.26 53.663 1209.26 54.1644C1209.26 54.943 1208.97 55.551 1208.38 55.9884C1207.79 56.4257 1207.02 56.6444 1206.06 56.6444Z" fill="white"/>
<defs>
<filter id="filter0_d_27_7" x="308.328" y="0.1875" width="136" height="136" filterUnits="userSpaceOnUse" color-interpolation-filters="sRGB">
<feFlood flood-opacity="0" result="BackgroundImageFix"/>
<feColorMatrix in="SourceAlpha" type="matrix" values="0 0 0 0 0 0 0 0 0 0 0 0 0 0 0 0 0 0 127 0" result="hardAlpha"/>
<feOffset dy="2"/>
<feGaussianBlur stdDeviation="2"/>
<feComposite in2="hardAlpha" operator="out"/>
<feColorMatrix type="matrix" values="0 0 0 0 0 0 0 0 0 0 0 0 0 0 0 0 0 0 0.075 0"/>
<feBlend mode="normal" in2="BackgroundImageFix" result="effect1_dropShadow_27_7"/>
<feBlend mode="normal" in="SourceGraphic" in2="effect1_dropShadow_27_7" result="shape"/>
</filter>
</defs>
</svg>
