<svg width="65" height="65" viewBox="0 0 65 65" fill="none" xmlns="http://www.w3.org/2000/svg">
<path d="M30.8531 49.3048L50.5758 29.5822C47.2579 28.1961 44.2445 26.172 41.7065 23.6248C39.158 21.0863 37.133 18.0719 35.7465 14.7528L16.0238 34.4755C14.4851 36.0142 13.7145 36.7848 13.0531 37.6328C12.2728 38.6341 11.6032 39.7168 11.0558 40.8622C10.5945 41.8328 10.2505 42.8675 9.56246 44.9315L5.93046 55.8195C5.76329 56.318 5.73849 56.8533 5.85884 57.3651C5.97919 57.877 6.23992 58.3451 6.61171 58.7169C6.98351 59.0887 7.45164 59.3494 7.96349 59.4698C8.47533 59.5901 9.0106 59.5653 9.50912 59.3982L20.3971 55.7662C22.4638 55.0782 23.4958 54.7342 24.4665 54.2728C25.6167 53.7253 26.6931 53.0595 27.6958 52.2755C28.5438 51.6142 29.3145 50.8435 30.8531 49.3048ZM56.0478 24.1102C58.0143 22.1437 59.119 19.4765 59.119 16.6955C59.119 13.9144 58.0143 11.2473 56.0478 9.28082C54.0813 7.31433 51.4142 6.20956 48.6331 6.20956C45.8521 6.20956 43.1849 7.31433 41.2185 9.28082L38.8531 11.6462L38.9545 11.9422C40.1198 15.2776 42.0273 18.3048 44.5331 20.7955C47.0983 23.3763 50.2315 25.3215 53.6825 26.4755L56.0478 24.1102Z" fill="#034381"/>
</svg>
