<svg width="64" height="64" viewBox="0 0 64 64" fill="none" xmlns="http://www.w3.org/2000/svg">
<path d="M36.428 40.672C32.7495 43.2873 28.2227 44.4253 23.7447 43.8603C19.2667 43.2953 15.1644 41.0686 12.2508 37.6215C9.33714 34.1745 7.82486 29.7586 8.01363 25.2491C8.2024 20.7395 10.0784 16.4655 13.27 13.274C16.4615 10.0824 20.7355 8.20639 25.2451 8.01762C29.7546 7.82885 34.1705 9.34114 37.6175 12.2548C41.0646 15.1684 43.2913 19.2707 43.8563 23.7487C44.4213 28.2267 43.2833 32.7535 40.668 36.432L55.12 50.88C55.4147 51.1546 55.6512 51.4859 55.8151 51.8538C55.9791 52.2218 56.0673 52.6191 56.0744 53.0219C56.0815 53.4247 56.0074 53.8248 55.8565 54.1984C55.7056 54.5719 55.481 54.9113 55.1962 55.1962C54.9113 55.481 54.5719 55.7056 54.1984 55.8565C53.8248 56.0074 53.4247 56.0815 53.0219 56.0744C52.6191 56.0673 52.2218 55.9791 51.8538 55.8151C51.4859 55.6512 51.1546 55.4147 50.88 55.12L36.428 40.672ZM38 26C38 22.8174 36.7357 19.7652 34.4853 17.5147C32.2348 15.2643 29.1826 14 26 14C22.8174 14 19.7652 15.2643 17.5147 17.5147C15.2643 19.7652 14 22.8174 14 26C14 29.1826 15.2643 32.2348 17.5147 34.4853C19.7652 36.7357 22.8174 38 26 38C29.1826 38 32.2348 36.7357 34.4853 34.4853C36.7357 32.2348 38 29.1826 38 26Z" fill="#034381"/>
</svg>
