<svg width="73" height="73" viewBox="0 0 73 73" fill="none" xmlns="http://www.w3.org/2000/svg">
<path d="M15.2812 60.8755V48.7465C15.2812 47.4125 15.7562 46.2735 16.7062 45.3295C17.6542 44.3855 18.7942 43.9135 20.1262 43.9135H52.4362C53.7682 43.9135 54.9082 44.3885 55.8562 45.3385C56.8042 46.2885 57.2793 47.4275 57.2812 48.7555V60.8755H15.2812ZM28.1482 38.6065C24.5882 38.6065 21.5533 37.3515 19.0433 34.8415C16.5353 32.3335 15.2812 29.3015 15.2812 25.7455C15.2812 22.1895 16.5353 19.1545 19.0433 16.6405C21.5513 14.1265 24.5872 12.8715 28.1512 12.8755H44.4202C47.9803 12.8755 51.0142 14.1295 53.5222 16.6375C56.0303 19.1455 57.2832 22.1815 57.2812 25.7455C57.2793 29.3095 56.0252 32.3435 53.5192 34.8475C51.0133 37.3515 47.9792 38.6055 44.4172 38.6095L28.1482 38.6065ZM28.1453 27.9325C28.7653 27.9325 29.2852 27.7225 29.7052 27.3025C30.1252 26.8825 30.3363 26.3625 30.3383 25.7425C30.3403 25.1225 30.1302 24.6025 29.7083 24.1825C29.2863 23.7625 28.7662 23.5515 28.1482 23.5495C27.5302 23.5475 27.0103 23.7575 26.5883 24.1795C26.1663 24.6015 25.9552 25.1215 25.9552 25.7395C25.9552 26.3575 26.1652 26.8775 26.5852 27.2995C27.0052 27.7215 27.5253 27.9325 28.1453 27.9325ZM44.4143 27.9325C45.0343 27.9325 45.5543 27.7225 45.9743 27.3025C46.3942 26.8825 46.6053 26.3625 46.6073 25.7425C46.6093 25.1225 46.3993 24.6025 45.9773 24.1825C45.5553 23.7625 45.0352 23.5515 44.4172 23.5495C43.7992 23.5475 43.2793 23.7575 42.8573 24.1795C42.4353 24.6015 42.2242 25.1215 42.2243 25.7395C42.2243 26.3575 42.4342 26.8775 42.8542 27.2995C43.2743 27.7215 43.7943 27.9325 44.4143 27.9325Z" fill="#034381"/>
</svg>
